<svg class="svg-icon"  style="width: 1em;height: 1em;vertical-align: middle;fill: white;overflow: hidden;" viewBox="0 0 1024 1024" version="1.1" xmlns="http://www.w3.org/2000/svg"><path d="M0 0h1024v1024H0z" fill-opacity="0" /><path d="M292 707a8 8 0 0 1 8 8v40a8 8 0 0 1-8 8H52a8 8 0 0 1-8-8v-40a8 8 0 0 1 8-8z m340 0a8 8 0 0 1 8 8v40a8 8 0 0 1-8 8H392a8 8 0 0 1-8-8v-40a8 8 0 0 1 8-8z m340 0a8 8 0 0 1 8 8v40a8 8 0 0 1-8 8H732a8 8 0 0 1-8-8v-40a8 8 0 0 1 8-8z m-680-88a8 8 0 0 1 8 8v40a8 8 0 0 1-8 8H52a8 8 0 0 1-8-8v-40a8 8 0 0 1 8-8z m340 0a8 8 0 0 1 8 8v40a8 8 0 0 1-8 8H392a8 8 0 0 1-8-8v-40a8 8 0 0 1 8-8z m340 0a8 8 0 0 1 8 8v40a8 8 0 0 1-8 8H732a8 8 0 0 1-8-8v-40a8 8 0 0 1 8-8zM852 283a138 138 0 1 1-135.16 166h-69.68a138 138 0 0 1-270.32 0h-69.68a138 138 0 1 1 0-56h69.68a138 138 0 0 1 270.32 0h69.68A138.05 138.05 0 0 1 852 283z m-680 68a70 70 0 1 0 70 70 70 70 0 0 0-70-70z m340 0a70 70 0 1 0 70 70 70 70 0 0 0-70-70z m340 0a70 70 0 1 0 70 70 70 70 0 0 0-70-70z"  /></svg>
